<?xml version="1.0" standalone="no"?>
<!DOCTYPE svg PUBLIC "-//W3C//DTD SVG 20010904//EN"
 "http://www.w3.org/TR/2001/REC-SVG-20010904/DTD/svg10.dtd">
<svg version="1.0" xmlns="http://www.w3.org/2000/svg"
 width="1929.000000pt" height="1633.000000pt" viewBox="0 0 1929.000000 1633.000000"
 preserveAspectRatio="xMidYMid meet">

<g transform="translate(0.000000,1633.000000) scale(0.100000,-0.100000)"
fill="#000000" stroke="none">
<path d="M7050 16305 c-172 -42 -323 -159 -404 -314 -46 -88 -65 -159 -72
-261 -10 -145 6 -196 170 -530 190 -388 235 -495 295 -704 60 -208 131 -581
114 -596 -4 -4 -57 -26 -118 -50 -534 -210 -1154 -536 -1640 -864 -855 -576
-1575 -1295 -2109 -2106 -921 -1397 -1320 -3017 -1160 -4705 185 -1956 1176
-3824 2749 -5179 115 -99 370 -306 377 -306 2 0 3 210 3 468 0 476 7 617 45
912 135 1045 491 1782 1090 2256 217 172 544 336 825 415 122 34 335 77 480
96 111 14 206 18 465 18 343 -1 419 -7 765 -61 1040 -163 2269 -658 3571
-1439 440 -264 712 -405 999 -518 789 -310 1452 -337 1955 -79 141 72 245 148
360 262 178 176 272 322 426 655 390 847 605 1657 686 2585 17 197 17 987 0
1180 -40 449 -101 816 -202 1220 -295 1174 -857 2231 -1667 3132 -159 177
-507 515 -698 677 -537 454 -1171 856 -1808 1145 -340 155 -829 339 -1119 421
l-97 27 -143 162 c-178 201 -542 572 -709 723 -782 706 -1546 1106 -2464 1287
-350 69 -828 104 -965 71z m3530 -8190 c1097 -142 2183 -774 2536 -1477 133
-264 148 -508 46 -718 -48 -99 -182 -237 -297 -304 -154 -89 -364 -154 -599
-182 -180 -22 -524 -15 -726 15 -633 95 -1261 346 -1765 704 -250 178 -493
423 -627 632 -249 387 -249 762 0 1014 185 186 459 293 845 331 127 12 436 4
587 -15z"/>
</g>
</svg>
