<?xml version="1.0" encoding="UTF-8"?>
<svg xmlns="http://www.w3.org/2000/svg" xmlns:xlink="http://www.w3.org/1999/xlink" width="1048px" height="1048px" viewBox="0 0 1048 1048" version="1.1">
<g id="surface1">
<path style=" stroke:none;fill-rule:nonzero;fill:rgb(99.607843%,99.607843%,99.607843%);fill-opacity:1;" d="M 493.621094 96.628906 C 495.761719 96.605469 495.761719 96.605469 497.941406 96.582031 C 573.617188 95.921875 641.503906 110.984375 709.160156 147.898438 C 710.335938 148.535156 711.507812 149.175781 712.714844 149.835938 C 760.089844 176.046875 806.074219 217.125 838.101562 262.398438 C 838.710938 263.242188 839.320312 264.085938 839.949219 264.953125 C 879.953125 320.320312 907.445312 383.476562 920.1875 451.941406 C 920.484375 453.542969 920.78125 455.148438 921.089844 456.796875 C 925.785156 483.492188 927.121094 509.804688 927.027344 536.921875 C 927.023438 539.335938 927.023438 539.335938 927.019531 541.804688 C 926.949219 565.609375 926.324219 588.820312 922.058594 612.261719 C 921.792969 613.765625 921.53125 615.273438 921.257812 616.824219 C 902.445312 721.351562 849.128906 823.308594 767.195312 886.972656 C 764.566406 889.027344 761.980469 891.128906 759.394531 893.246094 C 737.375 911.070312 713.324219 925.996094 688.171875 938.269531 C 686.996094 938.84375 685.820312 939.421875 684.609375 940.015625 C 637.535156 962.796875 585.382812 977.933594 533.386719 978.40625 C 531.25 978.429688 531.25 978.429688 529.070312 978.453125 C 453.394531 979.113281 385.507812 964.050781 317.847656 927.136719 C 316.675781 926.5 315.503906 925.859375 314.292969 925.199219 C 266.917969 898.988281 220.9375 857.910156 188.910156 812.636719 C 188.300781 811.792969 187.6875 810.949219 187.0625 810.082031 C 147.058594 754.714844 119.5625 691.558594 106.824219 623.09375 C 106.527344 621.492188 106.226562 619.886719 105.921875 618.234375 C 101.226562 591.542969 99.886719 565.230469 99.984375 538.113281 C 99.984375 536.503906 99.988281 534.890625 99.992188 533.230469 C 100.058594 509.425781 100.683594 486.214844 104.949219 462.773438 C 105.214844 461.269531 105.480469 459.761719 105.753906 458.210938 C 124.5625 353.679688 177.878906 251.726562 259.816406 188.0625 C 262.445312 186.007812 265.03125 183.90625 267.617188 181.789062 C 289.636719 163.964844 313.683594 149.039062 338.839844 136.765625 C 340.015625 136.1875 341.191406 135.613281 342.402344 135.019531 C 389.472656 112.238281 441.625 97.101562 493.621094 96.628906 Z M 493.621094 96.628906 "/>
<path style=" stroke:none;fill-rule:nonzero;fill:rgb(0%,0%,0%);fill-opacity:1;" d="M 412.023438 170.957031 C 414.109375 171 414.109375 171 416.242188 171.042969 C 429.242188 171.472656 441.636719 173.394531 454.285156 176.523438 C 455.871094 176.894531 455.871094 176.894531 457.492188 177.273438 C 499.046875 187.183594 538.097656 212.675781 566.148438 246.625 C 582.964844 266.46875 600.832031 276.5625 623.339844 287.179688 C 653.289062 301.453125 680.847656 323.101562 706.164062 345.09375 C 707.417969 346.175781 707.417969 346.175781 708.703125 347.28125 C 729.761719 365.550781 749.566406 385.777344 766.132812 408.703125 C 767.894531 411.007812 767.894531 411.007812 769.6875 413.355469 C 809.414062 465.730469 827.738281 527.574219 827.980469 594.269531 C 827.992188 595.925781 827.992188 595.925781 828.003906 597.617188 C 828.289062 649.050781 815.578125 714.585938 781.597656 753.5 C 778.980469 756.292969 776.332031 759.046875 773.632812 761.75 C 772.65625 762.753906 771.683594 763.761719 770.679688 764.796875 C 758.054688 777.121094 742.378906 782.039062 725.390625 781.601562 C 718.902344 780.730469 713.839844 778.757812 707.890625 776.003906 C 706.789062 775.507812 705.683594 775.011719 704.546875 774.5 C 692.234375 768.914062 680.078125 762.960938 667.929688 756.976562 C 663.039062 754.578125 658.148438 752.179688 653.253906 749.785156 C 652.03125 749.183594 650.808594 748.582031 649.546875 747.964844 C 641.625 744.085938 633.683594 740.246094 625.730469 736.441406 C 624.699219 735.945312 623.667969 735.453125 622.605469 734.945312 C 616.476562 732.011719 616.476562 732.011719 610.34375 729.082031 C 599.113281 723.707031 587.953125 718.210938 576.910156 712.410156 C 575.902344 711.882812 574.894531 711.355469 573.859375 710.8125 C 572.859375 710.285156 571.859375 709.761719 570.832031 709.222656 C 551.410156 699.027344 532.207031 689.976562 511.257812 683.824219 C 510.191406 683.503906 509.125 683.183594 508.027344 682.855469 C 501.152344 680.820312 494.242188 679.074219 487.265625 677.460938 C 486.28125 677.226562 485.292969 676.988281 484.277344 676.742188 C 448.867188 668.367188 412.9375 670.46875 381.285156 690.582031 C 366.089844 701.375 356.59375 714.640625 347.835938 731.53125 C 346.550781 733.9375 346.550781 733.9375 345.246094 736.390625 C 338.082031 751.097656 336.097656 766.183594 334.339844 782.421875 C 334.21875 783.445312 334.097656 784.46875 333.972656 785.523438 C 332.96875 794.375 332.535156 803.136719 332.367188 812.046875 C 332.320312 814.132812 332.320312 814.132812 332.273438 816.265625 C 332.175781 820.65625 332.085938 825.042969 331.996094 829.433594 C 331.933594 832.433594 331.867188 835.433594 331.800781 838.433594 C 331.640625 845.738281 331.488281 853.042969 331.34375 860.347656 C 279.121094 833.542969 242.210938 762.859375 220.394531 709.269531 C 219.898438 708.058594 219.402344 706.851562 218.890625 705.605469 C 212.632812 690.15625 208.121094 675.234375 205.902344 658.550781 C 205.550781 656.195312 205.121094 653.855469 204.640625 651.527344 C 201.558594 635.609375 201.953125 619.546875 202.011719 603.371094 C 202.027344 598.273438 202.011719 593.179688 201.992188 588.082031 C 201.941406 522.664062 218.964844 456.648438 256.378906 403.933594 C 256.996094 403.058594 257.617188 402.1875 258.253906 401.285156 C 282.367188 367.515625 309.386719 335.050781 341.835938 310.105469 C 343.082031 309.109375 344.328125 308.113281 345.613281 307.085938 C 368.164062 289.554688 393.289062 277.675781 419.800781 268.757812 C 420.371094 259.832031 418.734375 253.75 414.832031 245.996094 C 414.308594 244.921875 413.789062 243.84375 413.25 242.734375 C 408.222656 232.589844 402.601562 222.828125 396.835938 213.144531 C 391.90625 204.835938 387.921875 197.699219 387.566406 187.652344 C 387.488281 186.34375 387.410156 185.03125 387.332031 183.679688 C 388.535156 178.8125 390.652344 176.308594 394.421875 173.296875 C 400.054688 170.28125 405.84375 170.730469 412.023438 170.957031 Z M 412.023438 170.957031 "/>
<path style=" stroke:none;fill-rule:nonzero;fill:rgb(99.215686%,99.215686%,99.215686%);fill-opacity:1;" d="M 623.789062 539.550781 C 654.203125 560.097656 685.617188 584.5625 706.914062 615.839844 C 707.527344 616.738281 708.140625 617.640625 708.773438 618.570312 C 716.078125 629.707031 720.035156 639.921875 718.15625 653.609375 C 714.371094 662.28125 709.574219 665.605469 701.664062 669.511719 C 637.75 683.3125 549.867188 636.160156 497.761719 601.128906 C 491.519531 596.683594 485.605469 591.847656 479.769531 586.816406 C 478.878906 586.128906 477.984375 585.4375 477.066406 584.730469 C 465.894531 575.890625 458.582031 562.5625 456.53125 548.152344 C 458.03125 536.429688 465.011719 528.667969 473.304688 521.21875 C 520.007812 483.765625 580.097656 510.726562 623.789062 539.550781 Z M 623.789062 539.550781 "/>
</g>
</svg>
