<?xml version="1.0" encoding="UTF-8"?>
<svg version="1.1" xmlns="http://www.w3.org/2000/svg" width="699" height="659">
<path d="M0 0 C1.42594986 -0.01475876 1.42594986 -0.01475876 2.88070679 -0.02981567 C53.35462845 -0.44431521 98.63505083 9.02613558 143.76171875 32.23828125 C144.54401855 32.64046875 145.32631836 33.04265625 146.13232422 33.45703125 C177.73025472 49.93917567 208.40077672 75.77056192 229.76171875 104.23828125 C230.16874023 104.7688916 230.57576172 105.29950195 230.99511719 105.84619141 C257.67614887 140.66168397 276.01419508 180.37375172 284.51171875 223.42578125 C284.71071777 224.43398926 284.9097168 225.44219727 285.11474609 226.48095703 C288.24522789 243.26732593 289.13798477 259.8122482 289.07421875 276.86328125 C289.07148453 278.38298019 289.07148453 278.38298019 289.06869507 279.93338013 C289.02337114 294.90223417 288.60658607 309.49944737 285.76171875 324.23828125 C285.58479492 325.18525879 285.40787109 326.13223633 285.22558594 327.10791016 C272.67987606 392.8374627 237.11829737 456.9488849 182.46826172 496.98046875 C180.71532731 498.2724742 178.98982309 499.59572653 177.265625 500.92578125 C162.57842721 512.13464214 146.53853934 521.5197986 129.76171875 529.23828125 C128.97748535 529.60018555 128.19325195 529.96208984 127.38525391 530.33496094 C95.98914036 544.66199505 61.20437465 554.17919239 26.5234375 554.4765625 C25.09748764 554.49132126 25.09748764 554.49132126 23.64273071 554.50637817 C-26.83119095 554.92087771 -72.11161333 545.45042692 -117.23828125 522.23828125 C-118.02058105 521.83609375 -118.80288086 521.43390625 -119.60888672 521.01953125 C-151.20681722 504.53738683 -181.87733922 478.70600058 -203.23828125 450.23828125 C-203.64530273 449.7076709 -204.05232422 449.17706055 -204.47167969 448.63037109 C-231.15271137 413.81487853 -249.49075758 374.10281078 -257.98828125 331.05078125 C-258.18728027 330.04257324 -258.3862793 329.03436523 -258.59130859 327.99560547 C-261.72179039 311.20923657 -262.61454727 294.6643143 -262.55078125 277.61328125 C-262.54895844 276.60014862 -262.54713562 275.58701599 -262.54525757 274.54318237 C-262.49993364 259.57432833 -262.08314857 244.97711513 -259.23828125 230.23828125 C-259.06135742 229.29130371 -258.88443359 228.34432617 -258.70214844 227.36865234 C-246.15643856 161.6390998 -210.59485987 97.5276776 -155.94482422 57.49609375 C-154.19188981 56.2040883 -152.46638559 54.88083597 -150.7421875 53.55078125 C-136.05498971 42.34192036 -120.01510184 32.9567639 -103.23828125 25.23828125 C-102.45404785 24.87637695 -101.66981445 24.51447266 -100.86181641 24.14160156 C-69.46570286 9.81456745 -34.68093715 0.29737011 0 0 Z " fill="#FEFEFE" transform="translate(329.23828125,60.76171875)"/>
<path d="M0 0 C1.39279175 0.02767456 1.39279175 0.02767456 2.8137207 0.0559082 C11.48471633 0.32550747 19.7526246 1.53363568 28.1875 3.5 C29.24735107 3.73348145 29.24735107 3.73348145 30.32861328 3.97167969 C58.04350553 10.20519754 84.08956039 26.23310525 102.80078125 47.58203125 C114.01527636 60.05994173 125.93284551 66.40801019 140.94546509 73.08334351 C160.92203078 82.05771665 179.30329207 95.67245762 196.1875 109.5 C197.02547119 110.1813501 197.02547119 110.1813501 197.88037109 110.87646484 C211.92622168 122.36337119 225.13560995 135.08356539 236.1875 149.5 C237.36119141 150.94826172 237.36119141 150.94826172 238.55859375 152.42578125 C265.0537809 185.35871078 277.27599363 224.24752649 277.4375 266.1875 C277.44540054 267.22928406 277.44540054 267.22928406 277.45346069 268.29211426 C277.64291973 300.63472854 269.16482241 341.8425836 246.5 366.3125 C244.75601027 368.06873685 242.98827987 369.80204243 241.1875 371.5 C240.5378125 372.13292969 239.888125 372.76585937 239.21875 373.41796875 C230.7996916 381.16732932 220.34258027 384.26025217 209.01293945 383.98339844 C204.68445895 383.43643364 201.30819609 382.19550707 197.33984375 380.46484375 C196.60419189 380.15268921 195.86854004 379.84053467 195.1105957 379.5189209 C186.89750451 376.00556237 178.78840014 372.26291113 170.6875 368.5 C167.42519677 366.99063317 164.16182418 365.4835851 160.8984375 363.9765625 C160.08220917 363.59923981 159.26598083 363.22191711 158.42501831 362.8331604 C153.14065595 360.39281319 147.84537289 357.97815949 142.5390625 355.5859375 C141.85158936 355.27577698 141.16411621 354.96561646 140.45581055 354.64605713 C136.36731008 352.80159861 136.36731008 352.80159861 132.27819824 350.95849609 C124.78612324 347.57820598 117.34308532 344.12333372 109.9765625 340.4765625 C109.30533859 340.14436203 108.63411469 339.81216156 107.94255066 339.46989441 C107.27629166 339.14008072 106.61003265 338.81026703 105.92358398 338.47045898 C92.97040462 332.06088042 80.16146667 326.36966708 66.1875 322.5 C65.4764209 322.29874512 64.7653418 322.09749023 64.03271484 321.89013672 C59.44750636 320.61031874 54.83994265 319.5140541 50.1875 318.5 C49.5289502 318.35046875 48.87040039 318.2009375 48.19189453 318.046875 C24.57511682 312.77978302 0.60924748 314.10201816 -20.5 326.75 C-30.63698056 333.53711629 -36.97110355 341.87703853 -42.8125 352.5 C-43.66714844 354.01207031 -43.66714844 354.01207031 -44.5390625 355.5546875 C-49.31581252 364.80228728 -50.64075592 374.28839156 -51.8125 384.5 C-51.89337357 385.14388168 -51.97424713 385.78776337 -52.05757141 386.45115662 C-52.72826203 392.01722323 -53.01588322 397.52594041 -53.12890625 403.12890625 C-53.1600779 404.44156715 -53.1600779 404.44156715 -53.19187927 405.78074646 C-53.25659776 408.54126102 -53.31589341 411.30186017 -53.375 414.0625 C-53.41825937 415.94857601 -53.46187585 417.83464386 -53.50585938 419.72070312 C-53.6121979 424.31371822 -53.71367746 428.90681729 -53.8125 433.5 C-88.64284184 416.64557935 -113.26027857 372.19796548 -127.8125 338.5 C-128.14362793 337.73993652 -128.47475586 336.97987305 -128.81591797 336.19677734 C-132.99089297 326.4811813 -135.99775977 317.09806539 -137.47998047 306.60717773 C-137.71352558 305.12720136 -137.99859503 303.65488545 -138.32080078 302.19165039 C-140.37600432 292.18279094 -140.11353538 282.08104536 -140.07324219 271.91088867 C-140.06255956 268.70537238 -140.07316169 265.50042073 -140.0859375 262.29492188 C-140.11984435 221.15913183 -128.76753025 179.64797151 -103.8125 146.5 C-103.39919434 145.95069824 -102.98588867 145.40139648 -102.56005859 144.83544922 C-86.47814653 123.60055142 -68.4555753 103.18499439 -46.8125 87.5 C-45.98105469 86.87351562 -45.14960938 86.24703125 -44.29296875 85.6015625 C-29.25244741 74.57683541 -12.49372858 67.10740717 5.1875 61.5 C5.56933382 55.88776323 4.47823751 52.06252997 1.875 47.1875 C1.52614746 46.51033936 1.17729492 45.83317871 0.81787109 45.13549805 C-2.53419379 38.75756618 -6.28419793 32.6181689 -10.13012695 26.52807617 C-13.41739457 21.30344775 -16.07563542 16.81638871 -16.3125 10.5 C-16.3640625 9.675 -16.415625 8.85 -16.46875 8 C-15.66561508 4.94043839 -14.25322555 3.36498646 -11.73876953 1.47265625 C-7.98290848 -0.42383937 -4.12041116 -0.14285892 0 0 Z " fill="#000000" transform="translate(274.8125,107.5)"/>
<path d="M0 0 C20.28689553 12.92070186 41.23829663 28.30416483 55.44335938 47.97070312 C55.85295898 48.53708496 56.26255859 49.1034668 56.68457031 49.68701172 C61.5574159 56.68994027 64.1950821 63.11510938 62.94335938 71.72070312 C60.41890939 77.17351508 57.21974402 79.2644551 51.94335938 81.72070312 C9.31234157 90.39832833 -49.30446901 60.74802142 -84.05664062 38.72070312 C-88.22111977 35.92477401 -92.16644609 32.88560715 -96.05664062 29.72070312 C-96.6521875 29.28757812 -97.24773437 28.85445313 -97.86132812 28.40820312 C-105.31082384 22.85003016 -110.1888465 14.4698392 -111.55664062 5.40820312 C-110.55725273 -1.96228261 -105.90154081 -6.84396275 -100.36914062 -11.52929688 C-69.21916688 -35.07942763 -29.14052591 -18.12634803 0 0 Z " fill="#FDFDFD" transform="translate(416.056640625,339.279296875)"/>
</svg>
